<?xml version="1.0" encoding="utf-8" ?>
<svg xmlns="http://www.w3.org/2000/svg" xmlns:xlink="http://www.w3.org/1999/xlink" width="512" height="512">
	<path transform="scale(0.5 0.5)" d="M826.504 613.774C860.317 606.601 895.583 611.026 924.973 629.978C945.656 643.315 964.726 665.571 972.419 689.25L974.326 694.333C975.827 698.218 977.494 703 978.171 707.08C979.222 713.414 980.874 719.605 981.322 726.092C982.664 745.481 980.002 766.193 974.431 784.75C971 796.176 967.136 807.62 960.1 817.426C957.971 820.393 955.765 821.434 952.25 822.062C949.18 822.61 946.677 822.905 943.545 822.75L942.363 822.716L920.725 860.932C922.502 862.973 924.656 865.075 925.788 867.55L925.985 868L926.33 868.644C927.941 871.931 928.668 875.473 927.339 879.004L927.041 879.75C923.326 889.307 916.493 898.523 911.25 907.329C899.851 926.477 888.928 945.975 876.864 964.724C874.819 967.903 873.163 971.424 870.993 974.5C869.846 976.125 868.534 977.313 866.81 978.3L866.15 978.663C863.723 980.016 861.184 980.562 858.421 980.614C853.827 980.702 850.576 979.426 847.328 976.205C843.1 972.013 840.186 966.249 837.082 961.196C829.097 948.193 821.668 934.865 813.875 921.75C802.7 902.944 791.411 884.135 779.886 865.54C772.848 854.183 765.42 842.996 759.044 831.25C745.166 805.684 735.037 775.534 732.624 746.435C732.032 739.299 732.456 731.84 732.486 724.669C734.667 705.835 739.23 688.438 748.998 672C766.223 643.009 793.81 622.089 826.504 613.774Z"/>
	<path fill="#7DC8F4" transform="scale(0.5 0.5)" d="M855.405 644.716C874.499 645.033 891.556 648.596 907.74 659.25C922.714 669.107 934.799 684.611 941.281 701.3C943.864 707.949 945.386 714.736 946.806 721.699L859.763 721.643L767.741 721.615C769.196 704.96 777.564 688.056 788.65 675.729C806.726 655.627 828.733 646.089 855.405 644.716Z"/>
	<path fill="#FE9019" transform="scale(0.5 0.5)" d="M920.725 860.932C916.431 858.535 910.343 857.433 905.491 858.766C902.698 859.534 900.654 861.742 898.889 863.923C888.734 876.47 880.929 892.217 872.82 906.154C868.16 914.162 862.87 921.735 858.118 929.678C842.817 904.731 828.302 879.219 813.346 854.053C802.334 835.523 789.709 817.043 781.058 797.286C775.217 783.947 771.183 769.934 769.299 755.486L945.764 755.607C944.392 765.358 942.489 775.16 938.794 784.331C936.276 790.58 932.597 796.76 931.059 803.317C930.422 806.029 930.608 808.351 931.492 810.984C933.227 816.158 936.931 820.105 941.796 822.449L942.363 822.716L920.725 860.932Z"/>
	<path fill="#FEBA2B" transform="scale(0.5 0.5)" d="M678.003 736.365C678.408 738.291 678.524 739.962 678.196 741.919C677.471 746.246 673.828 750.555 670.229 752.855C666.887 754.991 663.849 755.505 659.969 755.601C641.212 756.06 622.354 755.704 603.588 755.743C564.363 755.823 525.149 755.808 485.925 755.665C412.87 755.399 339.803 755.874 266.745 755.648C237.531 755.558 208.306 755.731 179.09 755.748C171.469 755.753 163.849 755.816 156.229 755.86C150.352 755.894 144.073 756.195 138.322 754.852C123.117 751.302 109.914 742.109 101.659 728.728C96.9658 721.121 93.1609 712.489 92.5818 703.443C92.0149 694.589 92.4765 685.472 92.4721 676.589C92.4634 659.152 92.4514 641.715 92.4442 624.278C92.4218 570.359 92.3819 516.44 92.4039 462.521C92.42 422.894 92.4345 383.267 92.457 343.641C92.4635 332.266 92.4642 320.892 92.466 309.518C92.4677 298.842 91.9033 288.319 94.4055 277.859C98.135 262.27 108.571 249.024 122.075 240.626C128.378 236.706 135.889 234.051 143.25 233.067C149.799 232.192 156.67 232.517 163.272 232.498C173.541 232.468 183.811 232.462 194.08 232.46C228.712 232.454 263.344 232.486 297.977 232.528C298.08 200.888 297.934 169.246 297.982 137.606C297.995 129.261 297.99 120.916 297.998 112.57C298.004 106.186 297.754 99.6606 299.038 93.375C301.223 82.6795 306.314 72.9492 313.415 64.7127C323.457 53.0646 337.554 45.3538 352.943 44.2257C359.408 43.7518 366.007 44.0067 372.493 44.0013C383.311 43.9924 394.129 43.9889 404.948 43.9871C439.004 43.9815 473.061 43.9912 507.117 44.0069C529.213 44.017 551.31 44.0409 573.406 44.0255C580.344 44.0206 587.283 44.0045 594.221 44.0106C598.803 44.0146 603.455 43.8393 608 44.5061C618.209 46.0037 629.197 50.7158 637.002 57.4992C644.597 64.0999 650.42 71.8365 654.35 81.0994C655.351 83.4587 656.681 86.169 656.871 88.7275C657.542 90.4003 658.042 91.8342 658.262 93.6243C660.096 108.581 659.492 123.594 659.506 138.683C659.528 160.129 659.554 181.575 659.561 203.021C659.564 209.538 659.582 216.057 659.506 222.574C659.469 225.748 658.826 228.957 659.429 232.082L659.884 232.155C663.773 232.726 667.936 232.463 671.864 232.471C678.393 232.484 684.923 232.486 691.452 232.486C714.704 232.487 737.955 232.489 761.207 232.471C773.165 232.462 785.202 231.451 796.853 234.458C808.466 237.455 819.782 245.189 826.915 254.75C830.723 259.854 834.029 265.874 836.306 271.812C837.144 273.998 837.9 276.026 838.237 278.35C838.332 279.001 838.5 279.562 838.663 280.195C839.42 283.142 839.405 286.404 839.529 289.434C839.759 295.048 839.783 300.663 839.759 306.281C839.705 319.17 839.578 332.058 839.566 344.948C839.525 390.127 839.809 435.308 839.802 480.49C839.799 498.914 839.929 517.339 839.933 535.764C839.935 543.498 840.511 551.646 839.986 559.342C839.921 560.299 839.539 560.992 839.049 561.795C836.062 566.697 831.436 569.881 826.453 572.519L826.504 613.774C793.81 622.089 766.223 643.009 748.998 672C739.23 688.438 734.667 705.835 732.486 724.669C717.914 723.432 705.213 726.367 691.643 731.484C687.248 733.141 682.571 735.412 678.003 736.365ZM678.003 736.365C676.969 733.203 674.968 730.201 672.593 727.881C669.843 725.196 666.205 722.885 662.295 722.507C654.864 721.789 647.139 722.224 639.671 722.275C628.044 722.354 616.417 722.358 604.79 722.375C567.723 722.427 530.659 722.125 493.592 722.144C433.252 722.173 372.907 722.44 312.567 722.349C262.297 722.273 212.032 721.809 161.762 722.294C151.021 722.398 142.896 723.156 134.593 714.907C130.363 710.703 127.413 705.498 126.633 699.539C125.491 690.813 126.369 680.813 126.372 671.97C126.379 652.147 126.42 632.323 126.384 612.5C126.254 541.166 126.688 469.812 126.195 398.483C126.011 371.837 126.146 345.189 126.315 318.544C126.355 312.282 126.393 306.021 126.411 299.759C126.423 295.853 126.087 291.482 126.904 287.645C128.045 282.289 131.01 277.351 134.869 273.515C138.081 270.322 142.666 267.255 147.204 266.6C151.752 265.944 157.134 266.485 161.759 266.506C170.878 266.549 179.995 266.52 189.114 266.492C225.325 266.38 261.535 266.425 297.745 266.52C297.011 304.639 297.538 342.821 297.514 380.95C297.504 395.139 297.487 409.329 297.475 423.519C297.464 436.64 295.872 451.861 299.598 464.523C304.356 480.69 314.672 495.126 329.693 503.25C337.424 507.431 344.844 509.259 353.579 510.022C357.25 510.343 361.19 510.678 364.75 509.483C369.566 507.866 373.67 504.223 375.733 499.57C377.605 495.349 377.776 491.515 375.931 487.25C373.939 482.647 369.807 478.365 364.879 477.078C360.188 475.852 355.61 476.269 350.972 474.433C343.494 471.473 337.205 465.798 334.114 458.31C332.645 454.752 331.907 451.019 331.707 447.186C330.996 433.523 331.562 419.51 331.548 405.808C331.517 373.469 331.916 341.124 331.832 308.786C331.717 265.144 332.065 221.505 332.04 177.864C332.026 152.969 331.083 127.874 332.009 103C332.12 100.034 332.908 97.268 334.1 94.5625C337.06 87.8422 343.582 81.7832 350.523 79.3026C352.468 78.6074 354.378 78.2056 356.439 78.1249C370.407 77.5783 384.571 78.065 398.562 78.0365C428.604 77.9753 458.645 77.9995 488.686 77.9911C514.077 77.984 539.467 78.0061 564.858 78.0094C577.098 78.011 589.529 77.3948 601.75 77.9926C604.549 78.1296 607.245 79.0082 609.743 80.252C616.454 83.5926 622.053 89.8503 624.195 97.1061C626.319 104.297 625.418 113.945 625.424 121.478C625.434 133.038 625.423 144.598 625.436 156.158C625.49 202.774 625.435 249.384 625.392 296C625.362 328.564 625.531 361.129 625.585 393.693C625.617 412.68 626.236 432.06 625.008 451C624.781 454.493 623.413 457.948 621.804 461.032C618.307 467.74 612.26 473.171 604.947 475.359L604 475.637C598.704 477.218 592.212 476.707 586.701 476.713C578.456 476.721 570.21 476.682 561.965 476.67C542.164 476.641 522.355 476.902 502.555 476.691C512.429 458.669 524.052 441.651 535.074 424.322C541.611 414.046 547.515 403.379 553.952 393.037C559.339 384.382 565.224 375.999 570.374 367.204C580.066 350.652 588.042 333.235 592.797 314.603C597.425 296.471 597.958 278.439 597.74 259.852C597.61 248.705 597.331 237.583 595.281 226.585C592.705 212.769 588.182 199.592 580.97 187.5C565.341 161.296 539.15 141.979 509.596 134.558C478.801 126.825 444.576 130.69 417.166 147.177C392.113 162.246 371.61 187.322 364.573 216.001C360.624 232.096 360.123 247.874 360.251 264.348C360.401 283.548 361.033 301.657 366.321 320.309C372.306 341.419 383.27 360.174 394.684 378.722C403.14 392.463 411.773 406.055 420.438 419.664C432.298 438.289 443.725 457.371 455.125 476.285C450.76 476.375 446.563 476.756 443.059 479.696C439.596 482.603 437.338 486.962 437.187 491.5C437.013 496.719 439.097 502.766 442.779 506.496C445.832 509.59 449.749 510.831 454 510.918C460.712 511.057 467.54 510.496 474.276 510.48C494.999 510.43 515.723 510.484 536.446 510.478C550.47 510.473 564.493 510.464 578.516 510.478C589.282 510.488 600.89 511.421 611.453 509.066C622.692 506.56 632.983 500.21 641.081 492.127C649.385 483.839 655.62 473.018 658.07 461.505C660.031 452.293 659.428 442.438 659.436 433.057C659.447 421.297 659.444 409.538 659.442 397.778C659.435 353.979 659.466 310.182 659.379 266.383L778.697 266.197C789.895 266.453 799.678 271.62 803.889 282.505C807.233 291.148 806.011 302.05 806.017 311.233C806.023 321.186 806.021 331.139 806.022 341.091C806.028 388.981 806.362 436.866 806.424 484.753C806.443 499.62 806.43 514.487 806.469 529.353C806.492 538.291 805.983 547.762 807.198 556.625C807.744 560.603 809.224 564.061 812.073 566.936C815.934 570.832 820.159 572.656 825.593 572.541L826.453 572.519C831.436 569.881 836.062 566.697 839.049 561.795C839.539 560.992 839.921 560.299 839.986 559.342C840.511 551.646 839.935 543.498 839.933 535.764C839.929 517.339 839.799 498.914 839.802 480.49C839.809 435.308 839.525 390.127 839.566 344.948C839.578 332.058 839.705 319.17 839.759 306.281C839.783 300.663 839.759 295.048 839.529 289.434C839.405 286.404 839.42 283.142 838.663 280.195C838.5 279.562 838.332 279.001 838.237 278.35C837.9 276.026 837.144 273.998 836.306 271.812C834.029 265.874 830.723 259.854 826.915 254.75C819.782 245.189 808.466 237.455 796.853 234.458C785.202 231.451 773.165 232.462 761.207 232.471C737.955 232.489 714.704 232.487 691.452 232.486C684.923 232.486 678.393 232.484 671.864 232.471C667.936 232.463 663.773 232.726 659.884 232.155L659.429 232.082C658.826 228.957 659.469 225.748 659.506 222.574C659.582 216.057 659.564 209.538 659.561 203.021C659.554 181.575 659.528 160.129 659.506 138.683C659.492 123.594 660.096 108.581 658.262 93.6243C658.042 91.8342 657.542 90.4003 656.871 88.7275C656.681 86.169 655.351 83.4587 654.35 81.0994C650.42 71.8365 644.597 64.0999 637.002 57.4992C629.197 50.7158 618.209 46.0037 608 44.5061C603.455 43.8393 598.803 44.0146 594.221 44.0106C587.283 44.0045 580.344 44.0206 573.406 44.0255C551.31 44.0409 529.213 44.017 507.117 44.0069C473.061 43.9912 439.004 43.9815 404.948 43.9871C394.129 43.9889 383.311 43.9924 372.493 44.0013C366.007 44.0067 359.408 43.7518 352.943 44.2257C337.554 45.3538 323.457 53.0646 313.415 64.7127C306.314 72.9492 301.223 82.6795 299.038 93.375C297.754 99.6606 298.004 106.186 297.998 112.57C297.99 120.916 297.995 129.261 297.982 137.606C297.934 169.246 298.08 200.888 297.977 232.528C263.344 232.486 228.712 232.454 194.08 232.46C183.811 232.462 173.541 232.468 163.272 232.498C156.67 232.517 149.799 232.192 143.25 233.067C135.889 234.051 128.378 236.706 122.075 240.626C108.571 249.024 98.135 262.27 94.4055 277.859C91.9033 288.319 92.4677 298.842 92.466 309.518C92.4642 320.892 92.4635 332.266 92.457 343.641C92.4345 383.267 92.42 422.894 92.4039 462.521C92.3819 516.44 92.4218 570.359 92.4442 624.278C92.4514 641.715 92.4634 659.152 92.4721 676.589C92.4765 685.472 92.0149 694.589 92.5818 703.443C93.1609 712.489 96.9658 721.121 101.659 728.728C109.914 742.109 123.117 751.302 138.322 754.852C144.073 756.195 150.352 755.894 156.229 755.86C163.849 755.816 171.469 755.753 179.09 755.748C208.306 755.731 237.531 755.558 266.745 755.648C339.803 755.874 412.87 755.399 485.925 755.665C525.149 755.808 564.363 755.823 603.588 755.743C622.354 755.704 641.212 756.06 659.969 755.601C663.849 755.505 666.887 754.991 670.229 752.855C673.828 750.555 677.471 746.246 678.196 741.919C678.524 739.962 678.408 738.291 678.003 736.365Z"/>
	<path transform="scale(0.5 0.5)" d="M678.003 736.365C678.408 738.291 678.524 739.962 678.196 741.919C677.471 746.246 673.828 750.555 670.229 752.855C666.887 754.991 663.849 755.505 659.969 755.601C641.212 756.06 622.354 755.704 603.588 755.743C564.363 755.823 525.149 755.808 485.925 755.665C412.87 755.399 339.803 755.874 266.745 755.648C237.531 755.558 208.306 755.731 179.09 755.748C171.469 755.753 163.849 755.816 156.229 755.86C150.352 755.894 144.073 756.195 138.322 754.852C123.117 751.302 109.914 742.109 101.659 728.728C96.9658 721.121 93.1609 712.489 92.5818 703.443C92.0149 694.589 92.4765 685.472 92.4721 676.589C92.4634 659.152 92.4514 641.715 92.4442 624.278C92.4218 570.359 92.3819 516.44 92.4039 462.521C92.42 422.894 92.4345 383.267 92.457 343.641C92.4635 332.266 92.4642 320.892 92.466 309.518C92.4677 298.842 91.9033 288.319 94.4055 277.859C98.135 262.27 108.571 249.024 122.075 240.626C128.378 236.706 135.889 234.051 143.25 233.067C149.799 232.192 156.67 232.517 163.272 232.498C173.541 232.468 183.811 232.462 194.08 232.46C228.712 232.454 263.344 232.486 297.977 232.528C298.08 200.888 297.934 169.246 297.982 137.606C297.995 129.261 297.99 120.916 297.998 112.57C298.004 106.186 297.754 99.6606 299.038 93.375C301.223 82.6795 306.314 72.9492 313.415 64.7127C323.457 53.0646 337.554 45.3538 352.943 44.2257C359.408 43.7518 366.007 44.0067 372.493 44.0013C383.311 43.9924 394.129 43.9889 404.948 43.9871C439.004 43.9815 473.061 43.9912 507.117 44.0069C529.213 44.017 551.31 44.0409 573.406 44.0255C580.344 44.0206 587.283 44.0045 594.221 44.0106C598.803 44.0146 603.455 43.8393 608 44.5061C618.209 46.0037 629.197 50.7158 637.002 57.4992C644.597 64.0999 650.42 71.8365 654.35 81.0994C655.351 83.4587 656.681 86.169 656.871 88.7275C657.542 90.4003 658.042 91.8342 658.262 93.6243C660.096 108.581 659.492 123.594 659.506 138.683C659.528 160.129 659.554 181.575 659.561 203.021C659.564 209.538 659.582 216.057 659.506 222.574C659.469 225.748 658.826 228.957 659.429 232.082L659.884 232.155C663.773 232.726 667.936 232.463 671.864 232.471C678.393 232.484 684.923 232.486 691.452 232.486C714.704 232.487 737.955 232.489 761.207 232.471C773.165 232.462 785.202 231.451 796.853 234.458C808.466 237.455 819.782 245.189 826.915 254.75C830.723 259.854 834.029 265.874 836.306 271.812C837.144 273.998 837.9 276.026 838.237 278.35C838.332 279.001 838.5 279.562 838.663 280.195C839.42 283.142 839.405 286.404 839.529 289.434C839.759 295.048 839.783 300.663 839.759 306.281C839.705 319.17 839.578 332.058 839.566 344.948C839.525 390.127 839.809 435.308 839.802 480.49C839.799 498.914 839.929 517.339 839.933 535.764C839.935 543.498 840.511 551.646 839.986 559.342C839.921 560.299 839.539 560.992 839.049 561.795C836.062 566.697 831.436 569.881 826.453 572.519L825.593 572.541C820.159 572.656 815.934 570.832 812.073 566.936C809.224 564.061 807.744 560.603 807.198 556.625C805.983 547.762 806.492 538.291 806.469 529.353C806.43 514.487 806.443 499.62 806.424 484.753C806.362 436.866 806.028 388.981 806.022 341.091C806.021 331.139 806.023 321.186 806.017 311.233C806.011 302.05 807.233 291.148 803.889 282.505C799.678 271.62 789.895 266.453 778.697 266.197L659.379 266.383C659.466 310.182 659.435 353.979 659.442 397.778C659.444 409.538 659.447 421.297 659.436 433.057C659.428 442.438 660.031 452.293 658.07 461.505C655.62 473.018 649.385 483.839 641.081 492.127C632.983 500.21 622.692 506.56 611.453 509.066C600.89 511.421 589.282 510.488 578.516 510.478C564.493 510.464 550.47 510.473 536.446 510.478C515.723 510.484 494.999 510.43 474.276 510.48C467.54 510.496 460.712 511.057 454 510.918C449.749 510.831 445.832 509.59 442.779 506.496C439.097 502.766 437.013 496.719 437.187 491.5C437.338 486.962 439.596 482.603 443.059 479.696C446.563 476.756 450.76 476.375 455.125 476.285C443.725 457.371 432.298 438.289 420.438 419.664C411.773 406.055 403.14 392.463 394.684 378.722C383.27 360.174 372.306 341.419 366.321 320.309C361.033 301.657 360.401 283.548 360.251 264.348C360.123 247.874 360.624 232.096 364.573 216.001C371.61 187.322 392.113 162.246 417.166 147.177C444.576 130.69 478.801 126.825 509.596 134.558C539.15 141.979 565.341 161.296 580.97 187.5C588.182 199.592 592.705 212.769 595.281 226.585C597.331 237.583 597.61 248.705 597.74 259.852C597.958 278.439 597.425 296.471 592.797 314.603C588.042 333.235 580.066 350.652 570.374 367.204C565.224 375.999 559.339 384.382 553.952 393.037C547.515 403.379 541.611 414.046 535.074 424.322C524.052 441.651 512.429 458.669 502.555 476.691C522.355 476.902 542.164 476.641 561.965 476.67C570.21 476.682 578.456 476.721 586.701 476.713C592.212 476.707 598.704 477.218 604 475.637L604.947 475.359C612.26 473.171 618.307 467.74 621.804 461.032C623.413 457.948 624.781 454.493 625.008 451C626.236 432.06 625.617 412.68 625.585 393.693C625.531 361.129 625.362 328.564 625.392 296C625.435 249.384 625.49 202.774 625.436 156.158C625.423 144.598 625.434 133.038 625.424 121.478C625.418 113.945 626.319 104.297 624.195 97.1061C622.053 89.8503 616.454 83.5926 609.743 80.252C607.245 79.0082 604.549 78.1296 601.75 77.9926C589.529 77.3948 577.098 78.011 564.858 78.0094C539.467 78.0061 514.077 77.984 488.686 77.9911C458.645 77.9995 428.604 77.9753 398.562 78.0365C384.571 78.065 370.407 77.5783 356.439 78.1249C354.378 78.2056 352.468 78.6074 350.523 79.3026C343.582 81.7832 337.06 87.8422 334.1 94.5625C332.908 97.268 332.12 100.034 332.009 103C331.083 127.874 332.026 152.969 332.04 177.864C332.065 221.505 331.717 265.144 331.832 308.786C331.916 341.124 331.517 373.469 331.548 405.808C331.562 419.51 330.996 433.523 331.707 447.186C331.907 451.019 332.645 454.752 334.114 458.31C337.205 465.798 343.494 471.473 350.972 474.433C355.61 476.269 360.188 475.852 364.879 477.078C369.807 478.365 373.939 482.647 375.931 487.25C377.776 491.515 377.605 495.349 375.733 499.57C373.67 504.223 369.566 507.866 364.75 509.483C361.19 510.678 357.25 510.343 353.579 510.022C344.844 509.259 337.424 507.431 329.693 503.25C314.672 495.126 304.356 480.69 299.598 464.523C295.872 451.861 297.464 436.64 297.475 423.519C297.487 409.329 297.504 395.139 297.514 380.95C297.538 342.821 297.011 304.639 297.745 266.52C261.535 266.425 225.325 266.38 189.114 266.492C179.995 266.52 170.878 266.549 161.759 266.506C157.134 266.485 151.752 265.944 147.204 266.6C142.666 267.255 138.081 270.322 134.869 273.515C131.01 277.351 128.045 282.289 126.904 287.645C126.087 291.482 126.423 295.853 126.411 299.759C126.393 306.021 126.355 312.282 126.315 318.544C126.146 345.189 126.011 371.837 126.195 398.483C126.688 469.812 126.254 541.166 126.384 612.5C126.42 632.323 126.379 652.147 126.372 671.97C126.369 680.813 125.491 690.813 126.633 699.539C127.413 705.498 130.363 710.703 134.593 714.907C142.896 723.156 151.021 722.398 161.762 722.294C212.032 721.809 262.297 722.273 312.567 722.349C372.907 722.44 433.252 722.173 493.592 722.144C530.659 722.125 567.723 722.427 604.79 722.375C616.417 722.358 628.044 722.354 639.671 722.275C647.139 722.224 654.864 721.789 662.295 722.507C666.205 722.885 669.843 725.196 672.593 727.881C674.968 730.201 676.969 733.203 678.003 736.365ZM656.871 88.7275C656.822 90.2032 656.426 91.757 657.255 93C657.255 94.4278 656.952 95.7951 657.755 97C657.755 98.0629 657.624 98.0542 658.255 99C658.604 142.451 659.076 186.098 658.278 229.539C658.263 230.36 658.144 231.008 658.8 231.644L659.429 232.082C658.826 228.957 659.469 225.748 659.506 222.574C659.582 216.057 659.564 209.538 659.561 203.021C659.554 181.575 659.528 160.129 659.506 138.683C659.492 123.594 660.096 108.581 658.262 93.6243C658.042 91.8342 657.542 90.4003 656.871 88.7275Z"/>
	<path transform="scale(0.5 0.5)" d="M656.871 88.7275C657.542 90.4003 658.042 91.8342 658.262 93.6243C660.096 108.581 659.492 123.594 659.506 138.683C659.528 160.129 659.554 181.575 659.561 203.021C659.564 209.538 659.582 216.057 659.506 222.574C659.469 225.748 658.826 228.957 659.429 232.082L658.8 231.644C658.144 231.008 658.263 230.36 658.278 229.539C659.076 186.098 658.604 142.451 658.255 99C657.624 98.0542 657.755 98.0629 657.755 97C656.952 95.7951 657.255 94.4278 657.255 93C656.426 91.757 656.822 90.2032 656.871 88.7275Z"/>
	<path fill="#7DC8F4" transform="scale(0.5 0.5)" d="M475.883 165.716C494.844 164.724 516.727 171.541 531.715 183.107C551.067 198.039 559.404 217.9 562.538 241.529L482.25 241.069L395.054 241.301L394.89 240.725C394.629 238.596 395.395 235.225 395.753 233.069C398.052 219.188 403.335 205.721 412.779 195.116C429.421 176.431 451.224 167.127 475.883 165.716Z"/>
	<path fill="#FE9019" transform="scale(0.5 0.5)" d="M543.355 275.245L563.157 275.394C562.826 290.288 560.801 305.13 555.621 319.176C546.988 342.587 531.304 363.714 518.286 384.859C505.091 406.291 492.608 428.237 478.791 449.273C477.641 448.343 476.838 446.437 476.072 445.13C474.17 441.885 472.269 438.639 470.35 435.403C465.135 426.606 459.742 417.911 454.428 409.174C444.583 392.439 433.987 376.124 423.963 359.485C419.313 351.767 414.359 344.188 410.25 336.161C400.283 316.692 394.974 297.308 394.433 275.45L543.355 275.245Z"/>
</svg>
